<?xml version="1.0" encoding="utf-8"?>
<!-- Generator: Adobe Illustrator 19.0.0, SVG Export Plug-In . SVG Version: 6.00 Build 0)  -->
<svg version="1.1" id="Layer_1" xmlns="http://www.w3.org/2000/svg" xmlns:xlink="http://www.w3.org/1999/xlink" x="0px" y="0px"
	 viewBox="0 0 270.4 54.3" style="enable-background:new 0 0 270.4 54.3;" xml:space="preserve">
<style type="text/css">
	.st0{display:none;fill:#090808;}
	.st1{fill:#FFFFFF;}
	.st2{fill:#FB0C17;}
	.st3{fill:#B9B9AD;}
</style>
<rect x="-13" y="-46.4" class="st0" width="292.2" height="141.7"/>
<path class="st1" d="M8.3,28.7c-1.1,0-2,0.1-3.3,0c-1.1,0-2.3,0-3.6,0V8.3c1.2,0,1.9,0,3,0c1.4,0,2.4,0,3.4,0c1.3,0,2.5-0.1,3.6,0.1
	c1.1,0.2,1.8,0.5,2.6,0.9c0.8,0.5,1.4,1,1.8,1.8c0.4,0.7,0.7,1.6,0.7,2.7c0,1.6-0.8,2.9-2.4,3.9c1.3,0.5,2.2,1.2,2.7,2
	c0.5,0.8,0.7,1.8,0.7,2.9c0,2.1-0.8,3.8-2.3,4.8C13.6,28.4,11.4,28.7,8.3,28.7z M5.9,16.3h2.2c1.4,0,2.4-0.2,3-0.5
	c0.6-0.4,0.9-0.9,0.9-1.8c0-0.8-0.3-1.4-0.9-1.7c-0.6-0.3-1.6-0.5-2.8-0.5c-0.4,0-0.8,0-1.3,0c-0.5,0-0.9,0-1.2,0.1V16.3z M5.9,19.8
	v5.3c0.3,0,0.7,0.1,1.1,0.1c0.4,0,0.8,0,1.3,0c1.4,0,2.5-0.2,3.3-0.6c0.8-0.4,1.3-1.1,1.3-2.2c0-0.9-0.4-1.6-1.1-2
	c-0.7-0.4-1.7-0.6-3-0.6H5.9z"/>
<path class="st1" d="M19.9,28.7V8.3h13.8v3.9h-9.2v4h8.2v3.8h-8.2v4.9h9.9v3.9H19.9z"/>
<path class="st1" d="M42.5,8.3c3.1,0,5.3,0.3,6.9,1.4c1.6,1.1,2.4,2.8,2.4,5.1c0,1.4-0.3,2.6-1,3.5c-0.7,0.9-1.6,1.6-2.8,2.1
	c0.4,0.5,0.8,1.1,1.3,1.8c0.5,0.7,0.9,1.3,1.3,2.1c0.4,0.7,0.9,1.5,1.3,2.2c0.4,0.8,0.8,1.5,1.1,2.3h-5.1c-0.4-0.7-0.8-1.3-1.1-2
	c-0.4-0.7-0.8-1.4-1.2-2c-0.4-0.6-0.8-1.3-1.2-1.8c-0.4-0.6-0.8-1.1-1.2-1.6H41v7.5h-4.6V8.3c1.1,0,1.9,0,3,0
	C40.5,8.3,41.7,8.3,42.5,8.3z M42.6,12c-0.3,0-0.6,0-0.9,0c-0.3,0-0.5,0-0.8,0.1v5.5h1.3c1.7,0,3-0.2,3.7-0.6
	c0.7-0.4,1.1-1.2,1.1-2.2c0-1-0.4-1.7-1.1-2.1C45.2,12.2,44.1,12,42.6,12z"/>
<path class="st1" d="M72.4,18.4c0,1.3-0.2,2.7-0.5,3.9c-0.4,1.6-1.3,3-2.5,4.1c-1,0.9-2,1.4-3.4,1.9c-1.8,0.5-3.9,0.5-5.8,0.5
	c-0.4,0-5.5,0.1-5.5,0V8.3c1.2,0,2.2-0.1,3.4-0.1c1.3,0,2.8-0.1,3.6-0.1c1.7,0,2.6,0.1,4.1,0.5c1.4,0.4,2.6,1,3.7,1.9
	c1.4,1.1,2.2,2.7,2.6,4.4C72.3,16,72.4,17.2,72.4,18.4z M59.3,25c0.2,0,0.5,0,0.8,0c0.3,0,0.6,0,1,0c2.3,0,4-0.6,5.1-1.7
	c1.1-1.2,1.4-2.7,1.4-4.8c0-2.1-0.2-3.8-1.3-4.9c-1.1-1.1-2.7-1.6-5-1.6c-0.3,0-0.6,0-1,0c-0.3,0-0.6,0-0.9,0.1V25z"/>
<path class="st1" d="M75,8.3h4.6v20.4H75V8.3z"/>
<path class="st1" d="M92.1,28.7c-2.4,0-5-0.6-6.8-2.2c-2.2-2-2.9-5.2-2.9-8c0-2.8,0.5-5.9,2.6-7.9c0.9-0.9,2-1.6,3.2-2
	c1.3-0.5,2.6-0.7,4.1-0.7c0.8,0,1.6,0.1,2.3,0.2c0.7,0.1,1.3,0.3,1.8,0.4c0.5,0.2,1,0.3,1.3,0.5c0.3,0.2,0.6,0.3,0.8,0.4L97.2,13
	c-0.6-0.3-1.3-0.6-2.2-0.8c-0.8-0.2-1.7-0.3-2.8-0.3c-0.7,0-1.4,0.1-2,0.3c-3.2,1.1-3.6,5-3.1,7.9c0.5,2.9,2.4,4.7,5.4,4.7
	c1.8,0,3.4-0.4,5.1-1.1l1.2,3.6c-0.6,0.4-1.5,0.7-2.7,1C94.9,28.6,93.6,28.7,92.1,28.7z"/>
<path class="st1" d="M113,8.3h4.6v20.4H113v-8.7h-7.7v8.7h-4.6V8.3h4.6v7.8h7.7V8.3z"/>
<path class="st1" d="M121,28.7V8.3h13.8v3.9h-9.2v4h8.2v3.8h-8.2v4.9h9.9v3.9H121z"/>
<path class="st1" d="M143.9,28.7c-0.8-1.7-1.6-3.5-2.4-5.3c-0.8-1.8-1.5-3.7-2.3-5.5c-0.7-1.8-1.4-3.5-2-5.2
	c-0.6-1.7-1.1-3.1-1.5-4.4h5.1c0.4,1.2,0.8,2.5,1.3,3.8s0.9,2.7,1.4,4.1c0.5,1.4,1,2.7,1.4,3.9c0.4,1.2,0.9,2.3,1.3,3.2
	c0.4-0.9,0.8-2,1.3-3.2c0.5-1.2,0.9-2.5,1.4-3.9c0.5-1.4,1-2.7,1.4-4.1s0.9-2.6,1.3-3.8h4.9c-0.5,1.3-1,2.8-1.6,4.4
	c-0.6,1.6-1.2,3.4-2,5.2c-0.7,1.8-1.5,3.6-2.2,5.5c-0.8,1.8-1.6,3.6-2.4,5.3H143.9z"/>
<path class="st2" d="M169,25.2c0.6,0,1.2-0.1,1.6-0.2c0.4-0.1,0.8-0.3,1-0.4c0.3-0.2,0.4-0.4,0.5-0.7c0.1-0.3,0.1-0.5,0.1-0.9
	c0-0.7-0.3-1.2-0.9-1.7c-0.6-0.4-1.7-0.9-3.2-1.4c-0.7-0.2-1.3-0.5-2-0.8c-0.7-0.3-1.3-0.7-1.8-1.1s-1-1-1.3-1.7
	c-0.3-0.7-0.5-1.5-0.5-2.4c0-0.9,0.2-1.8,0.5-2.5c0.4-0.8,0.9-1.4,1.5-1.9c0.6-0.5,1.4-0.9,2.4-1.2c0.9-0.3,2-0.4,3.1-0.4
	c1.4,0,2.6,0.1,3.6,0.4c1,0.3,1.8,0.6,2.5,1l-1.3,3.6c-0.6-0.3-1.2-0.6-1.9-0.8c-0.7-0.2-1.5-0.3-2.5-0.3c-1.1,0-1.9,0.2-2.4,0.5
	c-0.5,0.3-0.7,0.8-0.7,1.4c0,0.4,0.1,0.7,0.3,0.9c0.2,0.3,0.4,0.5,0.8,0.7s0.7,0.4,1.1,0.6c0.4,0.2,0.9,0.3,1.4,0.5
	c1.1,0.4,2,0.8,2.8,1.2c0.8,0.4,1.4,0.8,2,1.3c0.5,0.5,0.9,1.1,1.2,1.8c0.3,0.7,0.4,1.5,0.4,2.5c0,1.9-0.7,3.4-2,4.4
	c-1.3,1.1-3.3,1.6-6,1.6c-0.9,0-1.7-0.1-2.4-0.2c-0.7-0.1-1.4-0.2-1.9-0.4c-0.6-0.2-1-0.3-1.4-0.5c-0.4-0.2-0.7-0.3-1-0.5l1.3-3.7
	c0.6,0.3,1.4,0.6,2.3,0.9C166.6,25.1,167.7,25.2,169,25.2z"/>
<path class="st2" d="M193,28.7c-0.4-0.7-0.9-1.4-1.5-2.2c-0.6-0.8-1.2-1.5-1.8-2.3c-0.6-0.8-1-1.4-1.8-2.3c-0.5-0.6-1.2-1.5-1.7-2.1
	c-0.2-0.2-0.3,0.1-0.6,0.3v8.6h-4.6V8.3h4.6V16c1.2-1.2,2.4-2.5,3.6-3.9c1.2-1.4,2.3-2.6,3.4-3.8h5.5c-1.4,1.7-2.8,3.2-4.2,4.8
	c-1.4,1.5-2.5,2.7-4.1,4.3c1.5,1.8,2.9,3.8,4.5,5.7c1.5,1.9,2.6,3.5,4.3,5.7H193z"/>
<path class="st2" d="M209.4,16.7c0.8-1.4,1.6-2.8,2.4-4.2c0.7-1.4,1.4-2.8,2.1-4.2h5.1c-1.1,2.2-2.3,4.3-3.5,6.4
	c-1.2,2.1-2.5,4.1-3.8,6.2v7.8H207V21c-1.3-2.1-2.6-4.2-3.8-6.2c-1.2-2.1-2.4-4.2-3.5-6.4h5.3c0.6,1.4,1.3,2.8,2,4.2
	C207.8,13.9,208.6,15.3,209.4,16.7z"/>
<g>
	<path class="st1" d="M8,38.4v0.7H5.7v12.7l6.3,0l0-3.7h0.7v4.4l-9.3,0v-0.7h1.5V39.1H3.5v-0.7H8z"/>
	<path class="st1" d="M46.9,51.8h2.4l-4.1-6l-3.9,6h2.4v0.7h-4.6v-0.7h1.3l4.3-6.6l-4.2-6.1h-1.4v-0.7h4.6v0.7h-2.3l3.8,5.5l4-5.5
		h-2.3v-0.7h4.6v0.7h-1.3l-4.4,6.2l4.5,6.6h1.2v0.7h-4.6V51.8z"/>
	<path class="st1" d="M81.2,51.8V39.1h-1.4v-0.7h3.6c0.7,0,1.3,0,2,0.1c0.8,0.1,1.7,0.1,2.4,0.5c1.3,0.8,1.7,2.6,1.6,4.1
		c0,0.1,0,0.2,0,0.3c-0.1,0.7-0.4,1.5-0.8,2.1c-0.6,0.8-1.4,0.9-2.4,1.1l3.1,5.3l0.7,0v0.7l-1.2,0c0,0,0-0.1,0-0.1l-3.3-5.7
		c-0.5,0-1.3,0-2,0H82v5.1h2.3v0.7h-4.6v-0.7H81.2z M82,39.1V46h1.4c0.7,0,1.4,0,2.1-0.1c0.7-0.1,1.4-0.2,2-0.5
		c0.8-0.5,1.1-1.5,1.2-2.4c0-0.3,0-0.5,0-0.7c0-0.7-0.2-1.4-0.5-2c-0.2-0.4-0.5-0.7-0.8-0.9c-0.4-0.2-0.9-0.3-1.4-0.3
		c-0.5,0-1-0.1-1.5-0.1c-0.4,0-0.7,0-1.1,0H82z"/>
	<path class="st1" d="M104.2,51.8v-5.8l-4.3-6.9h-1.4v-0.7h4.6v0.7h-2.3l3.8,6.2l4.1-6.2h-2.3v-0.7h4.6v0.7h-1.3l-4.5,6.9v5.8h1.9
		v0.7h-4.6v-0.7H104.2z"/>
	<path class="st1" d="M141.9,38.3v2.3h-0.8V39l-6.2,0v5.7l3.4,0v0.7l-3.4,0v6.3h2.3v0.7h-4.6v-0.7h1.5V39h-1.5v-0.7L141.9,38.3z"/>
	<path class="st1" d="M153.9,38.4v0.7H152v12.7h1.9v0.7h-4.6v-0.7h1.8V39.1h-1.8v-0.7H153.9z"/>
	<path class="st1" d="M172.6,39l-4.3,0v12.7h1.5v0.7h-3.9v-0.7h1.5V39h-4.3v1.6h-0.7v-2.3h0.6l9.7,0v0h0.6v2.3h-0.7V39z"/>
	<path class="st1" d="M181.8,51.8h1.5V39.1l-1.5,0v-0.7l2.2,0v0.1l7.6,12.6V39.1h-2.3v-0.7h4.6v0.7h-1.5v13.4h-0.8v0l0,0l-7.6-12.6
		v11.9h2.3v0.7h-4.6V51.8z"/>
	<path class="st1" d="M210.3,39.1l-6.5,0v5.7l5.4,0v0.7l-5.4,0v6.3l6.5,0l0-2h0.8l0,2.7l-9.7,0v-0.7h1.5V39.1h-1.5v-0.7l9.7,0v2.3
		h-0.8V39.1z"/>
	<g>
		<path class="st1" d="M223.9,52.6c-2,0-3.3-0.4-3.9-1.2c-0.5-0.6-0.4-1.3-0.4-1.3l0.8,0c0,0,0,0.5,0.3,0.8c0.2,0.3,1,0.8,3.2,0.8
			c1.5,0,2.5-0.2,2.9-0.7c0.4-0.4,0.4-1.1,0.4-2l0-0.4c0-1.3-0.1-1.9-0.5-2.2c-0.4-0.4-1.3-0.6-3.1-0.6c-3.9,0-3.9-2.4-3.9-3.7
			l0-0.2c0-0.8,0-2,0.8-2.8c0.7-0.7,1.8-1,3.3-1c1.9,0,3.1,0.4,3.8,1.1c0.5,0.5,0.4,0.9,0.4,1l-0.9,0c0,0,0-0.2-0.2-0.4
			c-0.3-0.3-1.1-0.8-3.1-0.8c-1.3,0-2.2,0.3-2.7,0.8c-0.6,0.6-0.6,1.5-0.6,2.2l0,0.2c0,1.3,0,2.9,3.1,2.9c1.8,0,3,0.1,3.7,0.8
			c0.6,0.6,0.7,1.5,0.7,2.8l0,0.4c0,1,0,1.9-0.7,2.6C226.8,52.3,225.7,52.6,223.9,52.6z"/>
	</g>
	<g>
		<path class="st1" d="M240.9,52.5c-2,0-3.3-0.4-3.9-1.2c-0.5-0.6-0.4-1.3-0.4-1.3l0.8,0c0,0,0,0.5,0.3,0.8c0.2,0.3,1,0.8,3.2,0.8
			c1.5,0,2.5-0.2,2.9-0.7c0.4-0.4,0.4-1.1,0.4-2l0-0.4c0-1.3-0.1-1.9-0.5-2.2c-0.4-0.4-1.3-0.6-3.1-0.6c-3.9,0-3.9-2.4-3.9-3.7
			l0-0.2c0-0.8,0-2,0.8-2.8c0.7-0.7,1.8-1,3.3-1c1.9,0,3.1,0.4,3.8,1.1c0.5,0.5,0.4,0.9,0.4,1l-0.9,0c0,0,0-0.2-0.2-0.4
			c-0.3-0.3-1.1-0.8-3.1-0.8c-1.3,0-2.2,0.3-2.7,0.8c-0.6,0.6-0.6,1.5-0.6,2.2l0,0.2c0,1.3,0,2.9,3.1,2.9c1.8,0,3,0.1,3.7,0.8
			c0.6,0.6,0.7,1.5,0.7,2.8l0,0.4c0,1,0,1.9-0.7,2.6C243.7,52.2,242.6,52.5,240.9,52.5z"/>
	</g>
	<g>
		<g>
			<path class="st1" d="M65.3,52.7c-0.7,0-1.3-0.1-1.9-0.3c-1.1-0.4-1.9-1.5-1.9-2.7V38.8h0.9v10.9c0,0.9,0.5,1.7,1.3,1.9
				c0.4,0.1,1,0.2,1.6,0.2c0.8,0,1.4-0.1,1.9-0.3c0.8-0.3,1.3-1.1,1.3-1.9V38.8h0.9v10.8c0,1.2-0.7,2.3-1.8,2.7
				C66.9,52.6,66.2,52.7,65.3,52.7z"/>
		</g>
		<g>
			<rect x="59.7" y="38.4" class="st1" width="4.5" height="0.9"/>
		</g>
		<g>
			<rect x="66.7" y="38.4" class="st1" width="4.5" height="0.9"/>
		</g>
	</g>
	<g>
		<g>
			<path class="st1" d="M26.1,52.9c-0.7,0-1.3-0.1-1.9-0.3c-1.1-0.4-1.9-1.5-1.9-2.7V39h0.9v10.9c0,0.9,0.5,1.7,1.3,1.9
				c0.4,0.1,1,0.2,1.6,0.2c0.8,0,1.4-0.1,1.9-0.3c0.8-0.3,1.3-1.1,1.3-1.9V39h0.9v10.8c0,1.2-0.7,2.3-1.8,2.7
				C27.7,52.8,26.9,52.9,26.1,52.9z"/>
		</g>
		<g>
			<rect x="20.5" y="38.6" class="st1" width="4.5" height="0.9"/>
		</g>
		<g>
			<rect x="27.4" y="38.6" class="st1" width="4.5" height="0.9"/>
		</g>
	</g>
</g>
<circle class="st3" cx="235.8" cy="9.4" r="8"/>
<path class="st2" d="M223.4,18l15,15.3c-0.4-0.4,6.9-8.9,7.5-9.7c6.4-7.5,14.3-12.6,22.3-18.3c0.3-0.2,0.6-0.4,0.8-0.6
	c-0.9,0.6-2.7,0.7-3.7,1c-3.1,0.9-6.1,2-9,3.3c-7.3,3.2-13.6,8-19.1,13.7C237.3,22.8,225.5,18.4,223.4,18z"/>
</svg>
